<svg width="64" height="64" viewBox="0 0 64 64" fill="none" xmlns="http://www.w3.org/2000/svg">
<rect x="0.5" y="0.5" width="63" height="63" rx="11.5" fill="#00233D" fill-opacity="0.05"/>
<rect x="0.5" y="0.5" width="63" height="63" rx="11.5" stroke="#00233D"/>
<path fill-rule="evenodd" clip-rule="evenodd" d="M20.4624 20.9779H13.1719C13.0683 20.9781 12.9691 21.0193 12.8959 21.0925C12.8227 21.1657 12.7815 21.265 12.7812 21.3685V22.8076C12.7812 23.0227 12.9566 23.1982 13.1719 23.1982H14.3918V47.3788H13.1719C13.0683 47.379 12.9691 47.4203 12.8959 47.4935C12.8227 47.5667 12.7815 47.6659 12.7812 47.7695V49.5781C12.7812 49.7933 12.9567 49.9688 13.1719 49.9688H50.8281C51.0433 49.9688 51.2188 49.7933 51.2188 49.5781V47.7694C51.2188 47.5542 51.0433 47.3787 50.8281 47.3787H49.6082V24.7606H43.5376V47.3788H41.9751V17.814H22.0249V47.3788H20.4624V23.1981V20.9779ZM33.1923 36.5716H37.1607C37.3759 36.5716 37.5513 36.747 37.5513 36.9622V47.3788H33.1923V36.5716H33.1923ZM31.6297 47.3788H27.2707V36.9622C27.2707 36.7471 27.4462 36.5716 27.6613 36.5716H31.6297V47.3788ZM21.1887 14.0312H42.8114C43.0266 14.0312 43.202 14.2067 43.202 14.4219V15.8609C43.202 16.0761 43.0266 16.2516 42.8114 16.2516H21.1887C21.0851 16.2514 20.9859 16.2101 20.9127 16.1369C20.8395 16.0637 20.7983 15.9645 20.798 15.8609V14.4219C20.798 14.2067 20.9735 14.0312 21.1887 14.0312ZM33.5595 20.164C33.7745 20.164 33.9501 20.3395 33.9501 20.5546V23.0968H36.4923C36.7074 23.0968 36.8829 23.2723 36.8829 23.4874V26.6063C36.8829 26.8214 36.7074 26.9969 36.4923 26.9969H33.9501V29.5391C33.9501 29.7542 33.7746 29.9297 33.5595 29.9297H30.4406C30.3371 29.9295 30.2379 29.8883 30.1646 29.815C30.0914 29.7418 30.0502 29.6426 30.05 29.5391V26.9969H27.5078C27.4043 26.9967 27.305 26.9554 27.2318 26.8822C27.1586 26.809 27.1174 26.7098 27.1172 26.6063V23.4874C27.1172 23.2723 27.2927 23.0968 27.5078 23.0968H30.05V20.5546C30.05 20.3395 30.2255 20.164 30.4406 20.164H33.5595ZM43.5376 23.1981V20.9779H50.8281C51.0433 20.9779 51.2188 21.1534 51.2188 21.3685V22.8076C51.2188 23.0227 51.0433 23.1982 50.8281 23.1982H43.5376V23.1981Z" fill="#00233D"/>
</svg>
